<svg width="146" height="42" viewBox="0 0 146 42" fill="none" xmlns="http://www.w3.org/2000/svg">
<path d="M146 0H0V42H146V0Z" fill="black"/>
<path d="M139.445 33.0331C139.16 33.1138 138.919 33.1579 138.678 33.1579C137.824 33.1579 137.423 32.7907 137.423 31.7332V23.7503C137.423 19.5569 134.101 17.5153 130.174 17.5153C127.173 17.5153 125.56 17.8825 122.355 19.1824L121.64 23.4125L125.808 23.8605L126.4 21.7895C127.254 21.3415 128.1 21.2607 129.195 21.2607C132.152 21.2607 132.196 23.5006 132.196 25.3733V25.9829C131.261 25.858 130.21 25.8213 129.195 25.8213C125.027 25.8213 120.691 26.8788 120.691 31.4027C120.691 35.2289 123.684 36.661 126.319 36.661C129.276 36.661 131.137 34.869 132.188 32.9963C132.429 35.2362 133.765 36.661 136.196 36.661C137.328 36.661 138.503 36.3378 139.474 35.8017L139.445 33.0331ZM128.232 32.9156C126.655 32.9156 126.086 31.9755 126.086 30.7932C126.086 28.7956 127.706 28.2668 129.568 28.2668C130.415 28.2668 131.349 28.3917 132.203 28.5092C132.079 31.5716 130.093 32.9156 128.232 32.9156ZM121.217 8.22522L113.318 36.2571H108.171L116.07 8.22522H121.217ZM110.61 8.22522L102.711 36.2571H97.5719L105.47 8.22522H110.61V8.22522ZM88.6805 17.8825H94.1482V24.4774H88.6805V17.8825ZM88.6805 29.6548H94.1482V36.2571H88.6805V29.6548ZM80.7235 29.4125L84.8553 29.8164L83.7238 36.2571H67.766L67.2404 33.4884L77.2852 21.8776H71.5766L70.7663 24.7271L66.9995 24.3158L67.6492 17.8752H83.6873L84.0961 20.6438L73.9637 32.2619H79.8767L80.7235 29.4125ZM54.553 17.5153C47.9903 17.5153 44.7491 21.9584 44.7491 27.3342C44.7491 33.202 48.64 36.661 54.2683 36.661C60.101 36.661 64.3131 32.9523 64.3131 27.0845C64.3131 21.951 61.1084 17.5153 54.553 17.5153ZM54.4289 32.6291C51.5965 32.6291 50.1365 30.1836 50.1365 27.0037C50.1365 23.5373 51.7936 21.5471 54.4727 21.5471C56.9401 21.5471 58.9257 23.2142 58.9257 26.9229C58.9257 30.426 57.1445 32.6291 54.4289 32.6291ZM40.0479 32.2619H42.4788V36.2571H34.8211V25.9094C34.8211 22.7295 33.7699 21.5104 31.704 21.5104C29.1928 21.5104 28.1781 23.3023 28.1781 25.8727V32.2619H30.609V36.2571H22.9586V25.9094C22.9586 22.7295 21.9074 21.5104 19.8415 21.5104C17.3303 21.5104 16.3156 23.3023 16.3156 25.8727V32.2619H19.7977V36.2571H8.66516V32.2619H11.0961V21.8703H8.66516V17.8752H16.3156V20.6438C17.4106 18.6903 19.3159 17.508 21.8636 17.508C24.4989 17.508 26.9225 18.7711 27.8204 21.459C28.8351 19.0135 30.901 17.508 33.7772 17.508C37.0549 17.508 40.0552 19.5055 40.0552 23.8605V32.2619H40.0479Z" fill="white"/>
</svg>
