<?xml version="1.0" standalone="no"?>
<svg
  width="600"
  height="600"
  viewBox="0 0 600 600"
  xmlns="http://www.w3.org/2000/svg"
>
  <g transform="translate(300,300)">
    <path d="M136.2,-163.4C179.3,-126,219.2,-85.9,210.1,-50C201,-14.1,142.9,17.4,111.9,58.4C80.9,99.4,76.9,149.8,49.9,176.8C22.9,203.9,-27,207.7,-71.1,192.7C-115.1,177.8,-153.2,144.1,-169.3,103.8C-185.4,63.5,-179.3,16.5,-175,-34.8C-170.6,-86,-167.9,-141.4,-139,-181.3C-110.1,-221.2,-55.1,-245.6,-4.3,-240.5C46.5,-235.4,93,-200.8,136.2,-163.4Z" fill="#f94d35" />
  </g>
</svg>
    